<mxfile host="app.diagrams.net" modified="2022-05-26T05:06:29.373Z" agent="5.0 (Windows NT 10.0; Win64; x64) AppleWebKit/537.36 (KHTML, like Gecko) Chrome/101.0.4951.67 Safari/537.36" etag="bNZZnux8Jk_2tkdtZrnO" version="18.1.2" type="github">
  <diagram id="C5RBs43oDa-KdzZeNtuy" name="Page-1">
    <mxGraphModel dx="3008" dy="1993" grid="1" gridSize="10" guides="1" tooltips="1" connect="1" arrows="1" fold="1" page="1" pageScale="1" pageWidth="827" pageHeight="1169" math="0" shadow="0">
      <root>
        <mxCell id="WIyWlLk6GJQsqaUBKTNV-0" />
        <mxCell id="WIyWlLk6GJQsqaUBKTNV-1" parent="WIyWlLk6GJQsqaUBKTNV-0" />
        <mxCell id="gzW9RS-q7bpbhKCUJkrq-1" value="struct Expenses" style="swimlane;fontStyle=0;childLayout=stackLayout;horizontal=1;startSize=30;horizontalStack=0;resizeParent=1;resizeParentMax=0;resizeLast=0;collapsible=1;marginBottom=0;" vertex="1" parent="WIyWlLk6GJQsqaUBKTNV-1">
          <mxGeometry x="-760" y="-1120" width="140" height="180" as="geometry" />
        </mxCell>
        <mxCell id="gzW9RS-q7bpbhKCUJkrq-2" value="Date" style="text;strokeColor=none;fillColor=none;align=left;verticalAlign=middle;spacingLeft=4;spacingRight=4;overflow=hidden;points=[[0,0.5],[1,0.5]];portConstraint=eastwest;rotatable=0;" vertex="1" parent="gzW9RS-q7bpbhKCUJkrq-1">
          <mxGeometry y="30" width="140" height="30" as="geometry" />
        </mxCell>
        <mxCell id="gzW9RS-q7bpbhKCUJkrq-3" value="Transport Cost" style="text;strokeColor=none;fillColor=none;align=left;verticalAlign=middle;spacingLeft=4;spacingRight=4;overflow=hidden;points=[[0,0.5],[1,0.5]];portConstraint=eastwest;rotatable=0;" vertex="1" parent="gzW9RS-q7bpbhKCUJkrq-1">
          <mxGeometry y="60" width="140" height="30" as="geometry" />
        </mxCell>
        <mxCell id="gzW9RS-q7bpbhKCUJkrq-4" value="Meal Cost" style="text;strokeColor=none;fillColor=none;align=left;verticalAlign=middle;spacingLeft=4;spacingRight=4;overflow=hidden;points=[[0,0.5],[1,0.5]];portConstraint=eastwest;rotatable=0;" vertex="1" parent="gzW9RS-q7bpbhKCUJkrq-1">
          <mxGeometry y="90" width="140" height="30" as="geometry" />
        </mxCell>
        <mxCell id="gzW9RS-q7bpbhKCUJkrq-5" value="Entertainment" style="text;strokeColor=none;fillColor=none;align=left;verticalAlign=middle;spacingLeft=4;spacingRight=4;overflow=hidden;points=[[0,0.5],[1,0.5]];portConstraint=eastwest;rotatable=0;" vertex="1" parent="gzW9RS-q7bpbhKCUJkrq-1">
          <mxGeometry y="120" width="140" height="30" as="geometry" />
        </mxCell>
        <mxCell id="gzW9RS-q7bpbhKCUJkrq-6" value="Other" style="text;strokeColor=none;fillColor=none;align=left;verticalAlign=middle;spacingLeft=4;spacingRight=4;overflow=hidden;points=[[0,0.5],[1,0.5]];portConstraint=eastwest;rotatable=0;" vertex="1" parent="gzW9RS-q7bpbhKCUJkrq-1">
          <mxGeometry y="150" width="140" height="30" as="geometry" />
        </mxCell>
        <mxCell id="gzW9RS-q7bpbhKCUJkrq-7" value="Daily Report&lt;br&gt;-view all recorded expenses for a given day&lt;br&gt;added together etc" style="rounded=0;whiteSpace=wrap;html=1;" vertex="1" parent="WIyWlLk6GJQsqaUBKTNV-1">
          <mxGeometry x="-623" y="-530" width="210" height="59" as="geometry" />
        </mxCell>
        <mxCell id="gzW9RS-q7bpbhKCUJkrq-8" value="Weekly Report&lt;br&gt;-view all recorded expenses for a given week&lt;br&gt;added together etc" style="rounded=0;whiteSpace=wrap;html=1;" vertex="1" parent="WIyWlLk6GJQsqaUBKTNV-1">
          <mxGeometry x="-623" y="-619" width="210" height="69" as="geometry" />
        </mxCell>
        <mxCell id="gzW9RS-q7bpbhKCUJkrq-40" style="edgeStyle=none;rounded=0;orthogonalLoop=1;jettySize=auto;html=1;exitX=0.5;exitY=1;exitDx=0;exitDy=0;entryX=0.5;entryY=0;entryDx=0;entryDy=0;" edge="1" parent="WIyWlLk6GJQsqaUBKTNV-1" source="gzW9RS-q7bpbhKCUJkrq-9" target="gzW9RS-q7bpbhKCUJkrq-31">
          <mxGeometry relative="1" as="geometry" />
        </mxCell>
        <mxCell id="gzW9RS-q7bpbhKCUJkrq-9" value="input&lt;br&gt;(at least 3 days of expenses)" style="rounded=0;whiteSpace=wrap;html=1;" vertex="1" parent="WIyWlLk6GJQsqaUBKTNV-1">
          <mxGeometry x="-40" y="-915" width="120" height="60" as="geometry" />
        </mxCell>
        <mxCell id="gzW9RS-q7bpbhKCUJkrq-27" style="edgeStyle=none;rounded=0;orthogonalLoop=1;jettySize=auto;html=1;exitX=0.25;exitY=0;exitDx=0;exitDy=0;entryX=0.5;entryY=1;entryDx=0;entryDy=0;" edge="1" parent="WIyWlLk6GJQsqaUBKTNV-1" source="gzW9RS-q7bpbhKCUJkrq-10" target="gzW9RS-q7bpbhKCUJkrq-11">
          <mxGeometry relative="1" as="geometry" />
        </mxCell>
        <mxCell id="gzW9RS-q7bpbhKCUJkrq-28" style="edgeStyle=none;rounded=0;orthogonalLoop=1;jettySize=auto;html=1;exitX=0.75;exitY=0;exitDx=0;exitDy=0;entryX=0.25;entryY=1;entryDx=0;entryDy=0;" edge="1" parent="WIyWlLk6GJQsqaUBKTNV-1" source="gzW9RS-q7bpbhKCUJkrq-10" target="gzW9RS-q7bpbhKCUJkrq-22">
          <mxGeometry relative="1" as="geometry" />
        </mxCell>
        <mxCell id="gzW9RS-q7bpbhKCUJkrq-29" style="edgeStyle=none;rounded=0;orthogonalLoop=1;jettySize=auto;html=1;exitX=0.25;exitY=1;exitDx=0;exitDy=0;" edge="1" parent="WIyWlLk6GJQsqaUBKTNV-1" source="gzW9RS-q7bpbhKCUJkrq-10" target="gzW9RS-q7bpbhKCUJkrq-19">
          <mxGeometry relative="1" as="geometry" />
        </mxCell>
        <mxCell id="gzW9RS-q7bpbhKCUJkrq-30" style="edgeStyle=none;rounded=0;orthogonalLoop=1;jettySize=auto;html=1;exitX=0;exitY=0.5;exitDx=0;exitDy=0;entryX=1;entryY=0.5;entryDx=0;entryDy=0;" edge="1" parent="WIyWlLk6GJQsqaUBKTNV-1" source="gzW9RS-q7bpbhKCUJkrq-10" target="gzW9RS-q7bpbhKCUJkrq-24">
          <mxGeometry relative="1" as="geometry" />
        </mxCell>
        <mxCell id="gzW9RS-q7bpbhKCUJkrq-10" value="&lt;b&gt;menu&lt;/b&gt;&lt;br&gt;-user input to choose: view report, view expense, record expense or exit" style="rounded=0;whiteSpace=wrap;html=1;" vertex="1" parent="WIyWlLk6GJQsqaUBKTNV-1">
          <mxGeometry x="-360" y="-840" width="230" height="65" as="geometry" />
        </mxCell>
        <mxCell id="gzW9RS-q7bpbhKCUJkrq-11" value="exit" style="rounded=0;whiteSpace=wrap;html=1;" vertex="1" parent="WIyWlLk6GJQsqaUBKTNV-1">
          <mxGeometry x="-320" y="-950" width="60" height="30" as="geometry" />
        </mxCell>
        <mxCell id="gzW9RS-q7bpbhKCUJkrq-12" value="constructor to initialize struct members" style="rounded=0;whiteSpace=wrap;html=1;" vertex="1" parent="WIyWlLk6GJQsqaUBKTNV-1">
          <mxGeometry x="-560" y="-1090" width="120" height="60" as="geometry" />
        </mxCell>
        <mxCell id="gzW9RS-q7bpbhKCUJkrq-13" value="struct array&lt;br&gt;-to record multiple days expenses" style="rounded=0;whiteSpace=wrap;html=1;" vertex="1" parent="WIyWlLk6GJQsqaUBKTNV-1">
          <mxGeometry x="-560" y="-1020" width="120" height="60" as="geometry" />
        </mxCell>
        <mxCell id="gzW9RS-q7bpbhKCUJkrq-53" style="edgeStyle=orthogonalEdgeStyle;rounded=0;orthogonalLoop=1;jettySize=auto;html=1;exitX=0;exitY=0.5;exitDx=0;exitDy=0;entryX=1;entryY=0.5;entryDx=0;entryDy=0;" edge="1" parent="WIyWlLk6GJQsqaUBKTNV-1" source="gzW9RS-q7bpbhKCUJkrq-14" target="gzW9RS-q7bpbhKCUJkrq-51">
          <mxGeometry relative="1" as="geometry" />
        </mxCell>
        <mxCell id="gzW9RS-q7bpbhKCUJkrq-14" value="&lt;b&gt;View Daily Expenses&lt;/b&gt;&lt;br&gt;-shows specific expenses entered in a given day" style="rounded=0;whiteSpace=wrap;html=1;" vertex="1" parent="WIyWlLk6GJQsqaUBKTNV-1">
          <mxGeometry x="-760" y="-815" width="200" height="80" as="geometry" />
        </mxCell>
        <mxCell id="gzW9RS-q7bpbhKCUJkrq-52" style="edgeStyle=orthogonalEdgeStyle;rounded=0;orthogonalLoop=1;jettySize=auto;html=1;exitX=0;exitY=0.5;exitDx=0;exitDy=0;entryX=1;entryY=0.5;entryDx=0;entryDy=0;" edge="1" parent="WIyWlLk6GJQsqaUBKTNV-1" source="gzW9RS-q7bpbhKCUJkrq-15" target="gzW9RS-q7bpbhKCUJkrq-51">
          <mxGeometry relative="1" as="geometry" />
        </mxCell>
        <mxCell id="gzW9RS-q7bpbhKCUJkrq-15" value="&lt;b&gt;View Weekly Expenses&lt;/b&gt;&lt;br&gt;-shows all specific expenses entered in a given week" style="rounded=0;whiteSpace=wrap;html=1;" vertex="1" parent="WIyWlLk6GJQsqaUBKTNV-1">
          <mxGeometry x="-680" y="-725" width="190" height="70" as="geometry" />
        </mxCell>
        <mxCell id="gzW9RS-q7bpbhKCUJkrq-20" style="edgeStyle=orthogonalEdgeStyle;rounded=0;orthogonalLoop=1;jettySize=auto;html=1;exitX=0.5;exitY=1;exitDx=0;exitDy=0;entryX=1;entryY=0.5;entryDx=0;entryDy=0;" edge="1" parent="WIyWlLk6GJQsqaUBKTNV-1" source="gzW9RS-q7bpbhKCUJkrq-19" target="gzW9RS-q7bpbhKCUJkrq-7">
          <mxGeometry relative="1" as="geometry">
            <Array as="points">
              <mxPoint x="-353" y="-490" />
            </Array>
          </mxGeometry>
        </mxCell>
        <mxCell id="gzW9RS-q7bpbhKCUJkrq-21" style="edgeStyle=orthogonalEdgeStyle;rounded=0;orthogonalLoop=1;jettySize=auto;html=1;exitX=0.5;exitY=1;exitDx=0;exitDy=0;entryX=1.002;entryY=0.637;entryDx=0;entryDy=0;entryPerimeter=0;" edge="1" parent="WIyWlLk6GJQsqaUBKTNV-1" source="gzW9RS-q7bpbhKCUJkrq-19" target="gzW9RS-q7bpbhKCUJkrq-8">
          <mxGeometry relative="1" as="geometry" />
        </mxCell>
        <mxCell id="gzW9RS-q7bpbhKCUJkrq-19" value="&lt;b&gt;viewReport();&lt;/b&gt;" style="rounded=0;whiteSpace=wrap;html=1;" vertex="1" parent="WIyWlLk6GJQsqaUBKTNV-1">
          <mxGeometry x="-413" y="-740" width="120" height="60" as="geometry" />
        </mxCell>
        <mxCell id="gzW9RS-q7bpbhKCUJkrq-23" style="edgeStyle=none;rounded=0;orthogonalLoop=1;jettySize=auto;html=1;exitX=1;exitY=0.5;exitDx=0;exitDy=0;entryX=0;entryY=0.5;entryDx=0;entryDy=0;" edge="1" parent="WIyWlLk6GJQsqaUBKTNV-1" source="gzW9RS-q7bpbhKCUJkrq-22" target="gzW9RS-q7bpbhKCUJkrq-9">
          <mxGeometry relative="1" as="geometry" />
        </mxCell>
        <mxCell id="gzW9RS-q7bpbhKCUJkrq-22" value="&lt;b&gt;recordExpense();&lt;/b&gt;" style="rounded=0;whiteSpace=wrap;html=1;" vertex="1" parent="WIyWlLk6GJQsqaUBKTNV-1">
          <mxGeometry x="-190" y="-900" width="110" height="30" as="geometry" />
        </mxCell>
        <mxCell id="gzW9RS-q7bpbhKCUJkrq-25" style="edgeStyle=orthogonalEdgeStyle;rounded=0;orthogonalLoop=1;jettySize=auto;html=1;exitX=0.5;exitY=1;exitDx=0;exitDy=0;entryX=1;entryY=0.5;entryDx=0;entryDy=0;" edge="1" parent="WIyWlLk6GJQsqaUBKTNV-1" source="gzW9RS-q7bpbhKCUJkrq-24" target="gzW9RS-q7bpbhKCUJkrq-14">
          <mxGeometry relative="1" as="geometry" />
        </mxCell>
        <mxCell id="gzW9RS-q7bpbhKCUJkrq-26" style="edgeStyle=orthogonalEdgeStyle;rounded=0;orthogonalLoop=1;jettySize=auto;html=1;exitX=0.5;exitY=1;exitDx=0;exitDy=0;entryX=1;entryY=0.5;entryDx=0;entryDy=0;" edge="1" parent="WIyWlLk6GJQsqaUBKTNV-1" source="gzW9RS-q7bpbhKCUJkrq-24" target="gzW9RS-q7bpbhKCUJkrq-15">
          <mxGeometry relative="1" as="geometry" />
        </mxCell>
        <mxCell id="gzW9RS-q7bpbhKCUJkrq-24" value="&lt;b&gt;viewExpenses();&lt;/b&gt;" style="rounded=0;whiteSpace=wrap;html=1;" vertex="1" parent="WIyWlLk6GJQsqaUBKTNV-1">
          <mxGeometry x="-520" y="-855" width="120" height="60" as="geometry" />
        </mxCell>
        <mxCell id="gzW9RS-q7bpbhKCUJkrq-38" style="edgeStyle=none;rounded=0;orthogonalLoop=1;jettySize=auto;html=1;exitX=0;exitY=1;exitDx=0;exitDy=0;entryX=0.601;entryY=0.019;entryDx=0;entryDy=0;entryPerimeter=0;" edge="1" parent="WIyWlLk6GJQsqaUBKTNV-1" source="gzW9RS-q7bpbhKCUJkrq-31" target="gzW9RS-q7bpbhKCUJkrq-32">
          <mxGeometry relative="1" as="geometry" />
        </mxCell>
        <mxCell id="gzW9RS-q7bpbhKCUJkrq-39" style="edgeStyle=none;rounded=0;orthogonalLoop=1;jettySize=auto;html=1;exitX=1;exitY=1;exitDx=0;exitDy=0;entryX=0.371;entryY=0.033;entryDx=0;entryDy=0;entryPerimeter=0;" edge="1" parent="WIyWlLk6GJQsqaUBKTNV-1" source="gzW9RS-q7bpbhKCUJkrq-31" target="gzW9RS-q7bpbhKCUJkrq-33">
          <mxGeometry relative="1" as="geometry" />
        </mxCell>
        <mxCell id="gzW9RS-q7bpbhKCUJkrq-31" value="type of input:&lt;br&gt;-daily&lt;br&gt;-weekly" style="rhombus;whiteSpace=wrap;html=1;" vertex="1" parent="WIyWlLk6GJQsqaUBKTNV-1">
          <mxGeometry x="-55" y="-820" width="150" height="90" as="geometry" />
        </mxCell>
        <mxCell id="gzW9RS-q7bpbhKCUJkrq-36" style="edgeStyle=none;rounded=0;orthogonalLoop=1;jettySize=auto;html=1;exitX=0.5;exitY=1;exitDx=0;exitDy=0;entryX=0;entryY=0;entryDx=0;entryDy=0;" edge="1" parent="WIyWlLk6GJQsqaUBKTNV-1" source="gzW9RS-q7bpbhKCUJkrq-32" target="gzW9RS-q7bpbhKCUJkrq-35">
          <mxGeometry relative="1" as="geometry" />
        </mxCell>
        <mxCell id="gzW9RS-q7bpbhKCUJkrq-32" value="weekly expenses array selected" style="rounded=0;whiteSpace=wrap;html=1;" vertex="1" parent="WIyWlLk6GJQsqaUBKTNV-1">
          <mxGeometry x="-130" y="-725" width="120" height="60" as="geometry" />
        </mxCell>
        <mxCell id="gzW9RS-q7bpbhKCUJkrq-37" style="edgeStyle=none;rounded=0;orthogonalLoop=1;jettySize=auto;html=1;exitX=0.5;exitY=1;exitDx=0;exitDy=0;" edge="1" parent="WIyWlLk6GJQsqaUBKTNV-1" source="gzW9RS-q7bpbhKCUJkrq-33" target="gzW9RS-q7bpbhKCUJkrq-35">
          <mxGeometry relative="1" as="geometry" />
        </mxCell>
        <mxCell id="gzW9RS-q7bpbhKCUJkrq-33" value="daily expenses array selected" style="rounded=0;whiteSpace=wrap;html=1;" vertex="1" parent="WIyWlLk6GJQsqaUBKTNV-1">
          <mxGeometry x="50" y="-725" width="120" height="60" as="geometry" />
        </mxCell>
        <mxCell id="gzW9RS-q7bpbhKCUJkrq-42" style="edgeStyle=none;rounded=0;orthogonalLoop=1;jettySize=auto;html=1;exitX=0.5;exitY=1;exitDx=0;exitDy=0;" edge="1" parent="WIyWlLk6GJQsqaUBKTNV-1" source="gzW9RS-q7bpbhKCUJkrq-35" target="gzW9RS-q7bpbhKCUJkrq-41">
          <mxGeometry relative="1" as="geometry" />
        </mxCell>
        <mxCell id="gzW9RS-q7bpbhKCUJkrq-35" value="type of input:&lt;br&gt;-date&lt;br&gt;-transport&lt;br&gt;-meal&lt;br&gt;-entertainment&lt;br&gt;-other" style="rhombus;whiteSpace=wrap;html=1;" vertex="1" parent="WIyWlLk6GJQsqaUBKTNV-1">
          <mxGeometry x="-60" y="-660" width="180" height="130" as="geometry" />
        </mxCell>
        <mxCell id="gzW9RS-q7bpbhKCUJkrq-44" style="edgeStyle=none;rounded=0;orthogonalLoop=1;jettySize=auto;html=1;exitX=0.5;exitY=1;exitDx=0;exitDy=0;entryX=0.5;entryY=0;entryDx=0;entryDy=0;" edge="1" parent="WIyWlLk6GJQsqaUBKTNV-1" source="gzW9RS-q7bpbhKCUJkrq-41" target="gzW9RS-q7bpbhKCUJkrq-43">
          <mxGeometry relative="1" as="geometry" />
        </mxCell>
        <mxCell id="gzW9RS-q7bpbhKCUJkrq-41" value="add to array" style="rounded=0;whiteSpace=wrap;html=1;" vertex="1" parent="WIyWlLk6GJQsqaUBKTNV-1">
          <mxGeometry x="-25" y="-490" width="120" height="60" as="geometry" />
        </mxCell>
        <mxCell id="gzW9RS-q7bpbhKCUJkrq-45" style="edgeStyle=orthogonalEdgeStyle;rounded=0;orthogonalLoop=1;jettySize=auto;html=1;" edge="1" parent="WIyWlLk6GJQsqaUBKTNV-1" source="gzW9RS-q7bpbhKCUJkrq-43" target="gzW9RS-q7bpbhKCUJkrq-10">
          <mxGeometry relative="1" as="geometry" />
        </mxCell>
        <mxCell id="gzW9RS-q7bpbhKCUJkrq-47" value="No" style="edgeLabel;html=1;align=center;verticalAlign=middle;resizable=0;points=[];" vertex="1" connectable="0" parent="gzW9RS-q7bpbhKCUJkrq-45">
          <mxGeometry x="0.1651" y="-5" relative="1" as="geometry">
            <mxPoint as="offset" />
          </mxGeometry>
        </mxCell>
        <mxCell id="gzW9RS-q7bpbhKCUJkrq-46" style="edgeStyle=orthogonalEdgeStyle;rounded=0;orthogonalLoop=1;jettySize=auto;html=1;exitX=1;exitY=0.5;exitDx=0;exitDy=0;entryX=1;entryY=0.5;entryDx=0;entryDy=0;" edge="1" parent="WIyWlLk6GJQsqaUBKTNV-1" source="gzW9RS-q7bpbhKCUJkrq-43" target="gzW9RS-q7bpbhKCUJkrq-31">
          <mxGeometry relative="1" as="geometry">
            <Array as="points">
              <mxPoint x="210" y="-350" />
              <mxPoint x="210" y="-775" />
            </Array>
          </mxGeometry>
        </mxCell>
        <mxCell id="gzW9RS-q7bpbhKCUJkrq-48" value="Yes" style="edgeLabel;html=1;align=center;verticalAlign=middle;resizable=0;points=[];" vertex="1" connectable="0" parent="gzW9RS-q7bpbhKCUJkrq-46">
          <mxGeometry x="-0.1704" y="1" relative="1" as="geometry">
            <mxPoint as="offset" />
          </mxGeometry>
        </mxCell>
        <mxCell id="gzW9RS-q7bpbhKCUJkrq-43" value="add new expense?" style="rhombus;whiteSpace=wrap;html=1;" vertex="1" parent="WIyWlLk6GJQsqaUBKTNV-1">
          <mxGeometry x="-5" y="-390" width="80" height="80" as="geometry" />
        </mxCell>
        <mxCell id="gzW9RS-q7bpbhKCUJkrq-55" style="rounded=0;orthogonalLoop=1;jettySize=auto;html=1;exitX=1;exitY=1;exitDx=0;exitDy=0;entryX=0.5;entryY=0;entryDx=0;entryDy=0;" edge="1" parent="WIyWlLk6GJQsqaUBKTNV-1" source="gzW9RS-q7bpbhKCUJkrq-51" target="gzW9RS-q7bpbhKCUJkrq-54">
          <mxGeometry relative="1" as="geometry" />
        </mxCell>
        <mxCell id="gzW9RS-q7bpbhKCUJkrq-51" value="which expense?&lt;br&gt;-date&lt;br&gt;-transport&lt;br&gt;-meal&lt;br&gt;-entertainment&lt;br&gt;-other" style="rhombus;whiteSpace=wrap;html=1;" vertex="1" parent="WIyWlLk6GJQsqaUBKTNV-1">
          <mxGeometry x="-1010" y="-745" width="200" height="185" as="geometry" />
        </mxCell>
        <mxCell id="gzW9RS-q7bpbhKCUJkrq-58" style="rounded=0;orthogonalLoop=1;jettySize=auto;html=1;exitX=1;exitY=1;exitDx=0;exitDy=0;entryX=0;entryY=0;entryDx=0;entryDy=0;" edge="1" parent="WIyWlLk6GJQsqaUBKTNV-1" source="gzW9RS-q7bpbhKCUJkrq-54" target="gzW9RS-q7bpbhKCUJkrq-57">
          <mxGeometry relative="1" as="geometry" />
        </mxCell>
        <mxCell id="gzW9RS-q7bpbhKCUJkrq-54" value="display all entries into specified expense" style="rounded=0;whiteSpace=wrap;html=1;" vertex="1" parent="WIyWlLk6GJQsqaUBKTNV-1">
          <mxGeometry x="-880" y="-530" width="120" height="60" as="geometry" />
        </mxCell>
        <mxCell id="gzW9RS-q7bpbhKCUJkrq-59" style="edgeStyle=orthogonalEdgeStyle;rounded=0;orthogonalLoop=1;jettySize=auto;html=1;exitX=0;exitY=1;exitDx=0;exitDy=0;entryX=0;entryY=1;entryDx=0;entryDy=0;" edge="1" parent="WIyWlLk6GJQsqaUBKTNV-1" source="gzW9RS-q7bpbhKCUJkrq-57" target="gzW9RS-q7bpbhKCUJkrq-51">
          <mxGeometry relative="1" as="geometry" />
        </mxCell>
        <mxCell id="gzW9RS-q7bpbhKCUJkrq-62" value="Yes" style="edgeLabel;html=1;align=center;verticalAlign=middle;resizable=0;points=[];" vertex="1" connectable="0" parent="gzW9RS-q7bpbhKCUJkrq-59">
          <mxGeometry x="0.3016" relative="1" as="geometry">
            <mxPoint as="offset" />
          </mxGeometry>
        </mxCell>
        <mxCell id="gzW9RS-q7bpbhKCUJkrq-60" style="edgeStyle=orthogonalEdgeStyle;rounded=0;orthogonalLoop=1;jettySize=auto;html=1;exitX=1;exitY=1;exitDx=0;exitDy=0;" edge="1" parent="WIyWlLk6GJQsqaUBKTNV-1" source="gzW9RS-q7bpbhKCUJkrq-57">
          <mxGeometry relative="1" as="geometry">
            <mxPoint x="-270" y="-770" as="targetPoint" />
          </mxGeometry>
        </mxCell>
        <mxCell id="gzW9RS-q7bpbhKCUJkrq-61" value="No" style="edgeLabel;html=1;align=center;verticalAlign=middle;resizable=0;points=[];" vertex="1" connectable="0" parent="gzW9RS-q7bpbhKCUJkrq-60">
          <mxGeometry x="-0.3451" relative="1" as="geometry">
            <mxPoint as="offset" />
          </mxGeometry>
        </mxCell>
        <mxCell id="gzW9RS-q7bpbhKCUJkrq-57" value="view another expense?" style="rhombus;whiteSpace=wrap;html=1;" vertex="1" parent="WIyWlLk6GJQsqaUBKTNV-1">
          <mxGeometry x="-743" y="-450" width="120" height="80" as="geometry" />
        </mxCell>
        <mxCell id="gzW9RS-q7bpbhKCUJkrq-63" style="edgeStyle=orthogonalEdgeStyle;rounded=0;orthogonalLoop=1;jettySize=auto;html=1;entryX=0;entryY=0.5;entryDx=0;entryDy=0;" edge="1" parent="WIyWlLk6GJQsqaUBKTNV-1" target="gzW9RS-q7bpbhKCUJkrq-12">
          <mxGeometry relative="1" as="geometry">
            <mxPoint x="-620" y="-1045" as="sourcePoint" />
          </mxGeometry>
        </mxCell>
        <mxCell id="gzW9RS-q7bpbhKCUJkrq-65" style="edgeStyle=orthogonalEdgeStyle;rounded=0;orthogonalLoop=1;jettySize=auto;html=1;exitX=1;exitY=0.5;exitDx=0;exitDy=0;entryX=0;entryY=0.5;entryDx=0;entryDy=0;" edge="1" parent="WIyWlLk6GJQsqaUBKTNV-1" source="gzW9RS-q7bpbhKCUJkrq-3" target="gzW9RS-q7bpbhKCUJkrq-13">
          <mxGeometry relative="1" as="geometry" />
        </mxCell>
      </root>
    </mxGraphModel>
  </diagram>
</mxfile>
